# xmcd
#
# Track frame offsets:
#	150
#	12762
#	24362
#	35237
#	47150
#	59287
#	70737
#	80937
#	91550
#	103712
#	113037
#	123000
#	134937
#	146412
#	158500
#	169412
#	184687
#	196337
#	207812
#	220837
#	235962
#	250125
#	260175
#
# Disc length: 3582 seconds
#
# Revision: 0
# Processed by: cddbd v1.5.1PL0 Copyright (c) Steve Scherf et al.
# Submitted via: dBpowerAMP V4.0
#
DISCID=490dfc17
DTITLE=Roy Hamilton - The Roy Hamilton Collection Part 1
DYEAR=1999
DGENRE=Soul
TTITLE0=You Can Have Her
TTITLE1=I'll Never Be Free
TTITLE2=I Need Your Lovin'
TTITLE3=Never Let Me Go
TTITLE4=Abide With Me
TTITLE5=Don't Let Go
TTITLE6=On My Way Back Home
TTITLE7=Jungle Fever
TTITLE8=Dreams Oh Dreams
TTITLE9=Crazy Feelin'
TTITLE10=I'll Live True To You
TTITLE11=The Ten Commandments
TTITLE12=Go Down, Moses
TTITLE13=Nobody Knows The Trouble I've Seen
TTITLE14=A Charge To Keep
TTITLE15=Over My head
TTITLE16=My Prayer
TTITLE17=Down By The Riverside
TTITLE18=Christian Testimonials
TTITLE19=Deep River
TTITLE20=Swing Low, Sweet Chariot
TTITLE21=Sometimes I Feel Like A Motherless Child
TTITLE22=The Lord's Prayer
EXTD=
EXTT0=
EXTT1=
EXTT2=
EXTT3=
EXTT4=
EXTT5=
EXTT6=
EXTT7=
EXTT8=
EXTT9=
EXTT10=
EXTT11=
EXTT12=
EXTT13=
EXTT14=
EXTT15=
EXTT16=
EXTT17=
EXTT18=
EXTT19=
EXTT20=
EXTT21=
EXTT22=
PLAYORDER=
